<svg width="496" height="460" viewBox="0 0 496 460" fill="none" xmlns="http://www.w3.org/2000/svg">
<path d="M488.432 459.534H8.09663C6.09006 459.532 4.1663 458.742 2.74745 457.336C1.32859 455.931 0.530511 454.025 0.52832 452.038V245.127C0.530511 243.139 1.32859 241.234 2.74745 239.828C4.1663 238.423 6.09006 237.632 8.09663 237.63H488.432C490.438 237.632 492.362 238.423 493.781 239.828C495.2 241.234 495.998 243.139 496 245.127V452.038C495.998 454.025 495.2 455.931 493.781 457.336C492.362 458.742 490.438 459.532 488.432 459.534ZM8.09663 240.629C6.89269 240.63 5.73843 241.104 4.88712 241.948C4.0358 242.791 3.55696 243.934 3.55564 245.127V452.038C3.55695 453.23 4.0358 454.373 4.88712 455.217C5.73843 456.06 6.89268 456.534 8.09663 456.536H488.432C489.636 456.534 490.79 456.06 491.641 455.217C492.493 454.373 492.971 453.23 492.973 452.038V245.127C492.971 243.934 492.493 242.791 491.641 241.948C490.79 241.104 489.636 240.63 488.432 240.629H8.09663Z" fill="#E6E6E6"/>
<path d="M27.7741 263.119C26.5698 263.119 25.4148 263.593 24.5632 264.436C23.7116 265.28 23.2332 266.424 23.2332 267.617C23.2332 268.81 23.7116 269.954 24.5632 270.798C25.4148 271.641 26.5698 272.115 27.7741 272.115H91.3479C92.5522 272.115 93.7073 271.641 94.5589 270.798C95.4105 269.954 95.8889 268.81 95.8889 267.617C95.8889 266.424 95.4105 265.28 94.5589 264.436C93.7073 263.593 92.5522 263.119 91.3479 263.119H27.7741Z" fill="#E6E6E6"/>
<path d="M462.992 294.401V377.814H34.2925V333.896C37.2611 332.007 40.2477 330.128 43.2611 328.31C56.1311 320.509 69.9068 313.213 84.9203 310.509C92.0206 309.198 99.2959 309.108 106.427 310.243C113.961 311.475 121.171 314.046 128.311 316.626C135.351 319.179 142.409 321.812 149.772 323.293C156.948 324.688 164.314 324.832 171.539 323.718C185.324 321.67 198.275 316.183 211.172 311.218C224.149 306.227 237.521 301.511 251.566 300.89C265.432 300.27 279.127 303.514 292.284 307.539C319.109 315.739 346.499 327.903 374.903 319.56C403.746 311.103 430.275 286.688 462.239 293.931C462.542 293.986 462.811 294.154 462.992 294.401Z" fill="#E6E6E6"/>
<path d="M462.993 295.855C462.856 296.109 462.637 296.31 462.37 296.426C462.104 296.542 461.806 296.565 461.525 296.493C457.716 295.628 453.815 295.229 449.908 295.305C418.467 295.855 394.293 320.926 363.55 324.676C335.832 328.053 309.744 314.702 283.681 307.725C270.14 304.099 256.178 302.176 242.243 304.64C228.416 307.078 215.438 312.681 202.407 317.654C189.86 322.442 176.82 326.892 163.234 327.114C148.296 327.362 134.845 321.263 120.99 316.617C113.786 314.197 106.393 312.282 98.7588 312.096C91.3183 312.008 83.9146 313.143 76.8494 315.456C62.1268 320.092 48.8631 328.355 35.9483 336.564C35.727 336.719 35.4576 336.791 35.1876 336.768C34.9089 336.731 34.6481 336.611 34.4398 336.424C34.2315 336.237 34.0857 335.991 34.0216 335.72C33.9575 335.449 33.9782 335.164 34.081 334.905C34.1837 334.646 34.3637 334.424 34.597 334.268L35.1876 333.896C38.15 332.007 41.1304 330.128 44.1375 328.31C56.9806 320.509 70.7277 313.213 85.7098 310.509C92.795 309.198 100.056 309.108 107.172 310.243C114.69 311.475 121.885 314.046 129.009 316.626C136.035 319.179 143.079 321.812 150.426 323.293C157.587 324.688 164.938 324.832 172.148 323.718C185.904 321.67 198.828 316.183 211.697 311.218C224.648 306.227 237.992 301.511 252.008 300.89C265.844 300.27 279.511 303.514 292.64 307.539C319.409 315.739 346.742 327.903 375.087 319.56C403.87 311.103 430.343 286.688 462.241 293.931C462.543 293.986 462.812 294.155 462.993 294.401C463.131 294.618 463.204 294.87 463.204 295.128C463.204 295.385 463.131 295.637 462.993 295.855Z" fill="#2ECC71"/>
<path d="M93.3618 317.53C96.8219 317.53 99.6268 314.752 99.6268 311.325C99.6268 307.897 96.8219 305.119 93.3618 305.119C89.9018 305.119 87.0969 307.897 87.0969 311.325C87.0969 314.752 89.9018 317.53 93.3618 317.53Z" fill="#2ECC71"/>
<path d="M251.775 309.552C255.235 309.552 258.04 306.773 258.04 303.346C258.04 299.919 255.235 297.14 251.775 297.14C248.315 297.14 245.51 299.919 245.51 303.346C245.51 306.773 248.315 309.552 251.775 309.552Z" fill="#2ECC71"/>
<path d="M445.093 301.573C448.553 301.573 451.357 298.794 451.357 295.367C451.357 291.94 448.553 289.161 445.093 289.161C441.633 289.161 438.828 291.94 438.828 295.367C438.828 298.794 441.633 301.573 445.093 301.573Z" fill="#2ECC71"/>
<path d="M89.8342 413.054C88.6299 413.054 87.4748 413.528 86.6232 414.372C85.7716 415.215 85.2932 416.359 85.2932 417.552C85.2932 418.745 85.7716 419.89 86.6232 420.733C87.4748 421.577 88.6299 422.05 89.8342 422.05H153.408C154.612 422.05 155.767 421.577 156.619 420.733C157.471 419.89 157.949 418.745 157.949 417.552C157.949 416.359 157.471 415.215 156.619 414.372C155.767 413.528 154.612 413.054 153.408 413.054H89.8342Z" fill="#E6E6E6"/>
<path d="M48.9654 434.045C58.4397 434.045 66.1202 426.437 66.1202 417.053C66.1202 407.668 58.4397 400.06 48.9654 400.06C39.491 400.06 31.8105 407.668 31.8105 417.053C31.8105 426.437 39.491 434.045 48.9654 434.045Z" fill="#2ECC71"/>
<path d="M243.218 413.054C242.014 413.054 240.859 413.528 240.007 414.372C239.156 415.215 238.677 416.359 238.677 417.552C238.677 418.745 239.156 419.89 240.007 420.733C240.859 421.577 242.014 422.05 243.218 422.05H306.792C307.997 422.05 309.152 421.577 310.003 420.733C310.855 419.89 311.333 418.745 311.333 417.552C311.333 416.359 310.855 415.215 310.003 414.372C309.152 413.528 307.997 413.054 306.792 413.054H243.218Z" fill="#E6E6E6"/>
<path d="M202.35 434.045C211.824 434.045 219.504 426.437 219.504 417.053C219.504 407.668 211.824 400.06 202.35 400.06C192.875 400.06 185.195 407.668 185.195 417.053C185.195 426.437 192.875 434.045 202.35 434.045Z" fill="#2ECC71"/>
<path d="M396.603 413.054C395.399 413.054 394.244 413.528 393.392 414.372C392.54 415.215 392.062 416.359 392.062 417.552C392.062 418.745 392.54 419.89 393.392 420.733C394.244 421.577 395.399 422.05 396.603 422.05H460.177C461.381 422.05 462.536 421.577 463.388 420.733C464.239 419.89 464.718 418.745 464.718 417.552C464.718 416.359 464.239 415.215 463.388 414.372C462.536 413.528 461.381 413.054 460.177 413.054H396.603Z" fill="#E6E6E6"/>
<path d="M355.734 434.045C365.208 434.045 372.889 426.437 372.889 417.053C372.889 407.668 365.208 400.06 355.734 400.06C346.26 400.06 338.579 407.668 338.579 417.053C338.579 426.437 346.26 434.045 355.734 434.045Z" fill="#2ECC71"/>
<path d="M455.554 181.764H218.577C213.958 181.764 210.214 179.122 210.209 175.866V124.846C210.214 121.591 213.958 118.949 218.577 118.949H455.554C460.174 118.949 463.918 121.591 463.923 124.846V175.865C463.919 179.121 460.174 181.76 455.554 181.764ZM218.577 121.306C215.805 121.306 213.559 122.891 213.556 124.844V175.863C213.556 177.816 215.805 179.4 218.577 179.402H455.554C458.326 179.402 460.572 177.816 460.575 175.863V124.846C460.575 122.893 458.326 121.31 455.554 121.308L218.577 121.306Z" fill="#E6E6E6"/>
<path d="M272.159 147.943C270.821 147.945 269.539 148.472 268.593 149.409C267.647 150.346 267.115 151.616 267.113 152.941V187.926C267.115 189.251 267.647 190.521 268.593 191.458C269.539 192.395 270.821 192.922 272.159 192.924H452.789C454.127 192.922 455.409 192.395 456.355 191.458C457.301 190.521 457.833 189.251 457.835 187.926V152.941C457.833 151.616 457.301 150.346 456.355 149.409C455.409 148.472 454.127 147.945 452.789 147.943H272.159Z" fill="#2ECC71"/>
<path d="M297.387 181.929C303.517 181.929 308.487 177.006 308.487 170.933C308.487 164.861 303.517 159.938 297.387 159.938C291.256 159.938 286.286 164.861 286.286 170.933C286.286 177.006 291.256 181.929 297.387 181.929Z" fill="white"/>
<path d="M347.975 166.161C346.771 166.161 345.616 166.635 344.764 167.478C343.913 168.322 343.434 169.466 343.434 170.659C343.434 171.852 343.913 172.996 344.764 173.84C345.616 174.683 346.771 175.157 347.975 175.157H411.549C412.753 175.157 413.908 174.683 414.76 173.84C415.611 172.996 416.09 171.852 416.09 170.659C416.09 169.466 415.611 168.322 414.76 167.478C413.908 166.635 412.753 166.161 411.549 166.161H347.975Z" fill="white"/>
<path d="M277.951 62.8149H40.9742C36.3545 62.8149 32.6108 60.173 32.6057 56.9174V5.89745C32.6108 2.64185 36.3545 -1.52588e-05 40.9742 -1.52588e-05H277.951C282.571 -1.52588e-05 286.314 2.64185 286.32 5.89745V56.9164C286.315 60.172 282.571 62.8109 277.951 62.8149ZM40.9742 2.35697C38.2022 2.35697 35.9559 3.94228 35.9529 5.89544V56.9144C35.9529 58.8676 38.2022 60.4509 40.9742 60.4529H277.951C280.723 60.4529 282.969 58.8676 282.972 56.9144V5.89745C282.972 3.94429 280.723 2.36097 277.951 2.35897L40.9742 2.35697Z" fill="#E6E6E6"/>
<path d="M94.5558 28.9946C93.2181 28.9962 91.9357 29.5233 90.9898 30.4602C90.0439 31.3971 89.5118 32.6675 89.5103 33.9925V68.9774C89.5118 70.3024 90.0439 71.5727 90.9898 72.5097C91.9357 73.4466 93.2181 73.9737 94.5558 73.9752H275.186C276.524 73.9737 277.806 73.4466 278.752 72.5097C279.698 71.5727 280.23 70.3024 280.232 68.9774V33.9925C280.23 32.6675 279.698 31.3971 278.752 30.4602C277.806 29.5233 276.524 28.9962 275.186 28.9946H94.5558Z" fill="#2ECC71"/>
<path d="M119.784 62.98C125.914 62.98 130.884 58.0572 130.884 51.9847C130.884 45.9122 125.914 40.9895 119.784 40.9895C113.653 40.9895 108.683 45.9122 108.683 51.9847C108.683 58.0572 113.653 62.98 119.784 62.98Z" fill="white"/>
<path d="M170.372 47.2122C169.168 47.2122 168.013 47.6861 167.161 48.5296C166.31 49.3732 165.831 50.5173 165.831 51.7103C165.831 52.9032 166.31 54.0473 167.161 54.8909C168.013 55.7344 169.168 56.2083 170.372 56.2083H233.946C235.15 56.2083 236.305 55.7344 237.157 54.8909C238.008 54.0473 238.487 52.9032 238.487 51.7103C238.487 50.5173 238.008 49.3732 237.157 48.5296C236.305 47.6861 235.15 47.2122 233.946 47.2122H170.372Z" fill="white"/>
</svg>
