<svg width="454" height="100" viewBox="0 0 454 100" fill="none" xmlns="http://www.w3.org/2000/svg">
<circle cx="50" cy="50" r="50" fill="#2ECC71"/>
<ellipse cx="44.359" cy="21.7949" rx="5.1282" ry="5.1282" fill="#F3F3F3"/>
<ellipse cx="44.3589" cy="78.2051" rx="5.1282" ry="5.1282" fill="#F3F3F3"/>
<ellipse cx="44.3589" cy="66.9231" rx="5.1282" ry="5.1282" fill="#F3F3F3"/>
<ellipse cx="44.3589" cy="33.077" rx="5.1282" ry="5.1282" fill="#F3F3F3"/>
<ellipse cx="33.0767" cy="33.077" rx="5.1282" ry="5.1282" fill="#F3F3F3"/>
<ellipse cx="33.0767" cy="44.359" rx="5.1282" ry="5.1282" fill="#F3F3F3"/>
<ellipse cx="21.795" cy="44.359" rx="5.1282" ry="5.1282" fill="#F3F3F3"/>
<ellipse cx="33.0767" cy="55.6411" rx="5.1282" ry="5.1282" fill="#F3F3F3"/>
<ellipse cx="21.795" cy="55.3333" rx="5.1282" ry="5.1282" fill="#F3F3F3"/>
<ellipse cx="33.0767" cy="66.9231" rx="5.1282" ry="5.1282" fill="#F3F3F3"/>
<ellipse cx="55.6409" cy="33.077" rx="5.1282" ry="5.1282" fill="#F3F3F3"/>
<ellipse cx="66.9231" cy="33.077" rx="5.1282" ry="5.1282" fill="#F3F3F3"/>
<ellipse cx="66.9231" cy="44.359" rx="5.1282" ry="5.1282" fill="#F3F3F3"/>
<ellipse cx="78.2051" cy="44.359" rx="5.1282" ry="5.1282" fill="#F3F3F3"/>
<ellipse cx="66.9231" cy="55.6411" rx="5.1282" ry="5.1282" fill="#F3F3F3"/>
<ellipse cx="78.2051" cy="55.3333" rx="5.1282" ry="5.1282" fill="#F3F3F3"/>
<ellipse cx="66.9231" cy="66.9231" rx="5.1282" ry="5.1282" fill="#F3F3F3"/>
<ellipse cx="55.6409" cy="21.7949" rx="5.1282" ry="5.1282" fill="#F3F3F3"/>
<ellipse cx="55.6409" cy="78.2051" rx="5.1282" ry="5.1282" fill="#F3F3F3"/>
<ellipse cx="55.6409" cy="66.9231" rx="5.1282" ry="5.1282" fill="#F3F3F3"/>
<path d="M156.264 29.94C156.264 30.564 156.156 31.176 155.94 31.776C155.748 32.376 155.472 32.94 155.112 33.468L130.488 68.64H155.472V78H115.008V73.32C115.008 72.768 115.104 72.228 115.296 71.7C115.488 71.148 115.752 70.644 116.088 70.188L140.784 34.908H117.024V25.548H156.264V29.94ZM180.915 62.808C178.683 62.904 176.847 63.096 175.407 63.384C173.967 63.672 172.827 64.032 171.987 64.464C171.147 64.896 170.559 65.388 170.223 65.94C169.911 66.492 169.755 67.092 169.755 67.74C169.755 69.012 170.103 69.912 170.799 70.44C171.495 70.944 172.515 71.196 173.859 71.196C175.299 71.196 176.559 70.944 177.639 70.44C178.719 69.936 179.811 69.12 180.915 67.992V62.808ZM160.827 45.852C163.083 43.86 165.579 42.384 168.315 41.424C171.075 40.44 174.027 39.948 177.171 39.948C179.427 39.948 181.455 40.32 183.255 41.064C185.079 41.784 186.615 42.804 187.863 44.124C189.135 45.42 190.107 46.968 190.779 48.768C191.451 50.568 191.787 52.536 191.787 54.672V78H186.675C185.619 78 184.815 77.856 184.263 77.568C183.735 77.28 183.291 76.68 182.931 75.768L182.139 73.716C181.203 74.508 180.303 75.204 179.439 75.804C178.575 76.404 177.675 76.92 176.739 77.352C175.827 77.76 174.843 78.06 173.787 78.252C172.755 78.468 171.603 78.576 170.331 78.576C168.627 78.576 167.079 78.36 165.687 77.928C164.295 77.472 163.107 76.812 162.123 75.948C161.163 75.084 160.419 74.016 159.891 72.744C159.363 71.448 159.099 69.96 159.099 68.28C159.099 66.936 159.435 65.58 160.107 64.212C160.779 62.82 161.943 61.56 163.599 60.432C165.255 59.28 167.487 58.32 170.295 57.552C173.103 56.784 176.643 56.352 180.915 56.256V54.672C180.915 52.488 180.459 50.916 179.547 49.956C178.659 48.972 177.387 48.48 175.731 48.48C174.411 48.48 173.331 48.624 172.491 48.912C171.651 49.2 170.895 49.524 170.223 49.884C169.575 50.244 168.939 50.568 168.315 50.856C167.691 51.144 166.947 51.288 166.083 51.288C165.315 51.288 164.667 51.096 164.139 50.712C163.611 50.328 163.179 49.872 162.843 49.344L160.827 45.852ZM210.081 67.848C210.921 68.76 211.833 69.408 212.817 69.792C213.801 70.176 214.833 70.368 215.913 70.368C216.945 70.368 217.893 70.164 218.757 69.756C219.621 69.348 220.365 68.7 220.989 67.812C221.637 66.9 222.141 65.724 222.501 64.284C222.861 62.844 223.041 61.092 223.041 59.028C223.041 57.06 222.897 55.404 222.609 54.06C222.321 52.716 221.913 51.636 221.385 50.82C220.881 49.98 220.269 49.38 219.549 49.02C218.829 48.66 218.025 48.48 217.137 48.48C215.505 48.48 214.161 48.78 213.105 49.38C212.049 49.98 211.041 50.856 210.081 52.008V67.848ZM209.397 45.276C210.861 43.716 212.517 42.444 214.365 41.46C216.237 40.452 218.457 39.948 221.025 39.948C222.969 39.948 224.769 40.38 226.425 41.244C228.081 42.108 229.509 43.356 230.709 44.988C231.909 46.62 232.845 48.624 233.517 51C234.213 53.352 234.561 56.028 234.561 59.028C234.561 61.836 234.165 64.428 233.373 66.804C232.605 69.18 231.513 71.244 230.097 72.996C228.705 74.748 227.025 76.116 225.057 77.1C223.113 78.084 220.953 78.576 218.577 78.576C216.633 78.576 215.001 78.3 213.681 77.748C212.361 77.196 211.161 76.452 210.081 75.516V89.844H198.921V40.668H205.833C207.225 40.668 208.137 41.292 208.569 42.54L209.397 45.276ZM251.495 67.848C252.335 68.76 253.247 69.408 254.231 69.792C255.215 70.176 256.247 70.368 257.327 70.368C258.359 70.368 259.307 70.164 260.171 69.756C261.035 69.348 261.779 68.7 262.403 67.812C263.051 66.9 263.555 65.724 263.915 64.284C264.275 62.844 264.455 61.092 264.455 59.028C264.455 57.06 264.311 55.404 264.023 54.06C263.735 52.716 263.327 51.636 262.799 50.82C262.295 49.98 261.683 49.38 260.963 49.02C260.243 48.66 259.439 48.48 258.551 48.48C256.919 48.48 255.575 48.78 254.519 49.38C253.463 49.98 252.455 50.856 251.495 52.008V67.848ZM250.811 45.276C252.275 43.716 253.931 42.444 255.779 41.46C257.651 40.452 259.871 39.948 262.439 39.948C264.383 39.948 266.183 40.38 267.839 41.244C269.495 42.108 270.923 43.356 272.123 44.988C273.323 46.62 274.259 48.624 274.931 51C275.627 53.352 275.975 56.028 275.975 59.028C275.975 61.836 275.579 64.428 274.787 66.804C274.019 69.18 272.927 71.244 271.511 72.996C270.119 74.748 268.439 76.116 266.471 77.1C264.527 78.084 262.367 78.576 259.991 78.576C258.047 78.576 256.415 78.3 255.095 77.748C253.775 77.196 252.575 76.452 251.495 75.516V89.844H240.335V40.668H247.247C248.639 40.668 249.551 41.292 249.983 42.54L250.811 45.276ZM327.782 25.548V78H321.446C320.51 78 319.718 77.856 319.07 77.568C318.446 77.256 317.822 76.728 317.198 75.984L292.466 44.7C292.562 45.636 292.622 46.548 292.646 47.436C292.694 48.3 292.718 49.116 292.718 49.884V78H281.99V25.548H288.398C288.926 25.548 289.37 25.572 289.73 25.62C290.09 25.668 290.414 25.764 290.702 25.908C290.99 26.028 291.266 26.208 291.53 26.448C291.794 26.688 292.094 27.012 292.43 27.42L317.378 58.92C317.258 57.912 317.174 56.94 317.126 56.004C317.078 55.044 317.054 54.144 317.054 53.304V25.548H327.782ZM352.746 40.092C355.578 40.092 358.158 40.536 360.486 41.424C362.814 42.312 364.806 43.584 366.462 45.24C368.142 46.896 369.438 48.912 370.35 51.288C371.286 53.64 371.754 56.292 371.754 59.244C371.754 62.22 371.286 64.908 370.35 67.308C369.438 69.684 368.142 71.712 366.462 73.392C364.806 75.048 362.814 76.332 360.486 77.244C358.158 78.132 355.578 78.576 352.746 78.576C349.89 78.576 347.286 78.132 344.934 77.244C342.606 76.332 340.59 75.048 338.886 73.392C337.206 71.712 335.898 69.684 334.962 67.308C334.05 64.908 333.594 62.22 333.594 59.244C333.594 56.292 334.05 53.64 334.962 51.288C335.898 48.912 337.206 46.896 338.886 45.24C340.59 43.584 342.606 42.312 344.934 41.424C347.286 40.536 349.89 40.092 352.746 40.092ZM352.746 70.296C355.314 70.296 357.198 69.396 358.398 67.596C359.622 65.772 360.234 63.012 360.234 59.316C360.234 55.62 359.622 52.872 358.398 51.072C357.198 49.272 355.314 48.372 352.746 48.372C350.106 48.372 348.174 49.272 346.95 51.072C345.726 52.872 345.114 55.62 345.114 59.316C345.114 63.012 345.726 65.772 346.95 67.596C348.174 69.396 350.106 70.296 352.746 70.296ZM400.018 50.676C399.178 49.74 398.266 49.092 397.282 48.732C396.298 48.348 395.266 48.156 394.186 48.156C393.154 48.156 392.206 48.36 391.342 48.768C390.478 49.176 389.722 49.836 389.074 50.748C388.45 51.636 387.958 52.8 387.598 54.24C387.238 55.68 387.058 57.42 387.058 59.46C387.058 61.428 387.202 63.084 387.49 64.428C387.778 65.772 388.174 66.864 388.678 67.704C389.206 68.52 389.83 69.108 390.55 69.468C391.27 69.828 392.074 70.008 392.962 70.008C393.778 70.008 394.51 69.936 395.158 69.792C395.83 69.624 396.442 69.396 396.994 69.108C397.546 68.82 398.062 68.46 398.542 68.028C399.046 67.572 399.538 67.056 400.018 66.48V50.676ZM411.178 24.108V78H404.266C402.874 78 401.962 77.376 401.53 76.128L400.666 73.284C399.922 74.076 399.142 74.796 398.326 75.444C397.51 76.092 396.622 76.656 395.662 77.136C394.726 77.592 393.706 77.94 392.602 78.18C391.522 78.444 390.346 78.576 389.074 78.576C387.13 78.576 385.33 78.144 383.674 77.28C382.018 76.416 380.59 75.168 379.39 73.536C378.19 71.904 377.242 69.912 376.546 67.56C375.874 65.184 375.538 62.484 375.538 59.46C375.538 56.676 375.922 54.096 376.69 51.72C377.458 49.32 378.538 47.256 379.93 45.528C381.346 43.776 383.038 42.408 385.006 41.424C386.974 40.44 389.146 39.948 391.522 39.948C393.466 39.948 395.098 40.224 396.418 40.776C397.738 41.328 398.938 42.072 400.018 43.008V24.108H411.178ZM441.938 54.852C441.938 53.964 441.818 53.1 441.578 52.26C441.362 51.42 440.99 50.676 440.462 50.028C439.958 49.356 439.286 48.816 438.446 48.408C437.606 48 436.586 47.796 435.386 47.796C433.274 47.796 431.618 48.408 430.418 49.632C429.218 50.832 428.426 52.572 428.042 54.852H441.938ZM427.898 61.332C428.258 64.452 429.206 66.72 430.742 68.136C432.278 69.528 434.258 70.224 436.682 70.224C437.978 70.224 439.094 70.068 440.03 69.756C440.966 69.444 441.794 69.096 442.514 68.712C443.258 68.328 443.93 67.98 444.53 67.668C445.154 67.356 445.802 67.2 446.474 67.2C447.362 67.2 448.034 67.524 448.49 68.172L451.73 72.168C450.578 73.488 449.33 74.568 447.986 75.408C446.666 76.224 445.298 76.872 443.882 77.352C442.49 77.808 441.086 78.12 439.67 78.288C438.278 78.48 436.946 78.576 435.674 78.576C433.058 78.576 430.598 78.156 428.294 77.316C426.014 76.452 424.01 75.18 422.282 73.5C420.578 71.82 419.222 69.732 418.214 67.236C417.23 64.74 416.738 61.836 416.738 58.524C416.738 56.028 417.158 53.664 417.998 51.432C418.862 49.2 420.086 47.244 421.67 45.564C423.278 43.884 425.21 42.552 427.466 41.568C429.746 40.584 432.314 40.092 435.17 40.092C437.642 40.092 439.898 40.476 441.938 41.244C444.002 42.012 445.766 43.128 447.23 44.592C448.718 46.056 449.87 47.856 450.686 49.992C451.526 52.104 451.945 54.504 451.945 57.192C451.945 58.032 451.91 58.716 451.838 59.244C451.766 59.772 451.634 60.192 451.442 60.504C451.25 60.816 450.986 61.032 450.65 61.152C450.338 61.272 449.93 61.332 449.426 61.332H427.898Z" fill="#F3F3F3"/>
</svg>
