<svg width="831" height="539" viewBox="0 0 831 539" fill="none" xmlns="http://www.w3.org/2000/svg">
<g clip-path="url(#clip0)">
<path d="M823.432 459.534H343.097C341.09 459.532 339.166 458.742 337.747 457.336C336.329 455.931 335.531 454.025 335.528 452.038V245.127C335.531 243.139 336.329 241.234 337.747 239.828C339.166 238.423 341.09 237.632 343.097 237.63H823.432C825.438 237.632 827.362 238.423 828.781 239.828C830.2 241.234 830.998 243.139 831 245.127V452.038C830.998 454.025 830.2 455.931 828.781 457.336C827.362 458.742 825.438 459.532 823.432 459.534ZM343.097 240.629C341.893 240.63 340.738 241.104 339.887 241.948C339.036 242.791 338.557 243.934 338.556 245.127V452.038C338.557 453.23 339.036 454.373 339.887 455.217C340.738 456.06 341.893 456.534 343.097 456.536H823.432C824.636 456.534 825.79 456.06 826.641 455.217C827.493 454.373 827.971 453.23 827.973 452.038V245.127C827.971 243.934 827.493 242.791 826.641 241.948C825.79 241.104 824.636 240.63 823.432 240.629H343.097Z" fill="#E6E6E6"/>
<path d="M362.774 263.119C361.57 263.119 360.415 263.593 359.563 264.436C358.712 265.28 358.233 266.424 358.233 267.617C358.233 268.81 358.712 269.954 359.563 270.798C360.415 271.641 361.57 272.115 362.774 272.115H426.348C427.552 272.115 428.707 271.641 429.559 270.798C430.41 269.954 430.889 268.81 430.889 267.617C430.889 266.424 430.41 265.28 429.559 264.436C428.707 263.593 427.552 263.119 426.348 263.119H362.774Z" fill="#E6E6E6"/>
<path d="M797.992 294.401V377.814H369.292V333.896C372.261 332.007 375.248 330.128 378.261 328.31C391.131 320.509 404.907 313.213 419.92 310.509C427.021 309.198 434.296 309.108 441.427 310.243C448.961 311.475 456.171 314.046 463.311 316.626C470.351 319.179 477.409 321.812 484.772 323.293C491.948 324.688 499.314 324.832 506.539 323.718C520.324 321.67 533.275 316.183 546.172 311.218C559.149 306.227 572.521 301.511 586.566 300.89C600.432 300.269 614.127 303.514 627.284 307.539C654.109 315.739 681.499 327.903 709.903 319.56C738.746 311.103 765.275 286.688 797.239 293.931C797.542 293.986 797.811 294.154 797.992 294.401Z" fill="#E6E6E6"/>
<path d="M797.993 295.855C797.856 296.109 797.637 296.31 797.37 296.426C797.104 296.542 796.806 296.565 796.525 296.493C792.716 295.628 788.815 295.229 784.908 295.305C753.467 295.855 729.293 320.926 698.55 324.676C670.832 328.053 644.744 314.702 618.681 307.725C605.14 304.099 591.178 302.176 577.243 304.64C563.416 307.078 550.438 312.681 537.407 317.654C524.86 322.442 511.82 326.892 498.234 327.114C483.296 327.362 469.845 321.263 455.99 316.617C448.786 314.197 441.393 312.282 433.759 312.096C426.318 312.007 418.915 313.143 411.849 315.456C397.127 320.092 383.863 328.355 370.948 336.564C370.727 336.719 370.458 336.791 370.188 336.768C369.909 336.731 369.648 336.611 369.44 336.424C369.232 336.237 369.086 335.991 369.022 335.72C368.958 335.449 368.978 335.164 369.081 334.905C369.184 334.646 369.364 334.424 369.597 334.268L370.188 333.896C373.15 332.007 376.13 330.128 379.138 328.31C391.981 320.509 405.728 313.213 420.71 310.509C427.795 309.198 435.056 309.108 442.172 310.243C449.69 311.475 456.885 314.046 464.009 316.626C471.035 319.179 478.079 321.812 485.426 323.293C492.587 324.688 499.938 324.832 507.148 323.718C520.904 321.67 533.828 316.183 546.697 311.218C559.648 306.227 572.992 301.511 587.008 300.89C600.844 300.269 614.511 303.514 627.64 307.539C654.409 315.739 681.742 327.903 710.087 319.56C738.87 311.103 765.343 286.688 797.241 293.931C797.543 293.986 797.812 294.155 797.993 294.401C798.131 294.618 798.204 294.87 798.204 295.128C798.204 295.385 798.131 295.637 797.993 295.855Z" fill="#2ECC71"/>
<path d="M428.362 317.53C431.822 317.53 434.627 314.752 434.627 311.325C434.627 307.897 431.822 305.119 428.362 305.119C424.902 305.119 422.097 307.897 422.097 311.325C422.097 314.752 424.902 317.53 428.362 317.53Z" fill="#2ECC71"/>
<path d="M586.775 309.552C590.235 309.552 593.04 306.773 593.04 303.346C593.04 299.919 590.235 297.14 586.775 297.14C583.315 297.14 580.51 299.919 580.51 303.346C580.51 306.773 583.315 309.552 586.775 309.552Z" fill="#2ECC71"/>
<path d="M780.093 301.573C783.553 301.573 786.357 298.794 786.357 295.367C786.357 291.94 783.553 289.161 780.093 289.161C776.633 289.161 773.828 291.94 773.828 295.367C773.828 298.794 776.633 301.573 780.093 301.573Z" fill="#2ECC71"/>
<path d="M424.834 413.054C423.63 413.054 422.475 413.528 421.623 414.372C420.772 415.215 420.293 416.359 420.293 417.552C420.293 418.745 420.772 419.889 421.623 420.733C422.475 421.577 423.63 422.05 424.834 422.05H488.408C489.612 422.05 490.767 421.577 491.619 420.733C492.471 419.889 492.949 418.745 492.949 417.552C492.949 416.359 492.471 415.215 491.619 414.372C490.767 413.528 489.612 413.054 488.408 413.054H424.834Z" fill="#E6E6E6"/>
<path d="M383.965 434.045C393.44 434.045 401.12 426.437 401.12 417.053C401.12 407.668 393.44 400.06 383.965 400.06C374.491 400.06 366.811 407.668 366.811 417.053C366.811 426.437 374.491 434.045 383.965 434.045Z" fill="#2ECC71"/>
<path d="M578.218 413.054C577.014 413.054 575.859 413.528 575.007 414.372C574.156 415.215 573.677 416.359 573.677 417.552C573.677 418.745 574.156 419.889 575.007 420.733C575.859 421.577 577.014 422.05 578.218 422.05H641.792C642.997 422.05 644.152 421.577 645.003 420.733C645.855 419.889 646.333 418.745 646.333 417.552C646.333 416.359 645.855 415.215 645.003 414.372C644.152 413.528 642.997 413.054 641.792 413.054H578.218Z" fill="#E6E6E6"/>
<path d="M537.35 434.045C546.824 434.045 554.504 426.437 554.504 417.053C554.504 407.668 546.824 400.06 537.35 400.06C527.875 400.06 520.195 407.668 520.195 417.053C520.195 426.437 527.875 434.045 537.35 434.045Z" fill="#2ECC71"/>
<path d="M731.603 413.054C730.399 413.054 729.244 413.528 728.392 414.372C727.54 415.215 727.062 416.359 727.062 417.552C727.062 418.745 727.54 419.889 728.392 420.733C729.244 421.577 730.399 422.05 731.603 422.05H795.177C796.381 422.05 797.536 421.577 798.388 420.733C799.239 419.889 799.718 418.745 799.718 417.552C799.718 416.359 799.239 415.215 798.388 414.372C797.536 413.528 796.381 413.054 795.177 413.054H731.603Z" fill="#E6E6E6"/>
<path d="M690.734 434.045C700.208 434.045 707.889 426.437 707.889 417.053C707.889 407.668 700.208 400.06 690.734 400.06C681.26 400.06 673.579 407.668 673.579 417.053C673.579 426.437 681.26 434.045 690.734 434.045Z" fill="#2ECC71"/>
<path d="M790.554 181.764H553.577C548.958 181.764 545.214 179.122 545.209 175.866V124.846C545.214 121.591 548.958 118.949 553.577 118.949H790.554C795.174 118.949 798.918 121.591 798.923 124.846V175.865C798.919 179.121 795.174 181.76 790.554 181.764ZM553.577 121.306C550.805 121.306 548.559 122.891 548.556 124.844V175.863C548.556 177.816 550.805 179.4 553.577 179.402H790.554C793.326 179.402 795.572 177.816 795.575 175.863V124.846C795.575 122.893 793.326 121.31 790.554 121.308L553.577 121.306Z" fill="#E6E6E6"/>
<path d="M607.159 147.943C605.821 147.945 604.539 148.472 603.593 149.409C602.647 150.346 602.115 151.616 602.113 152.941V187.926C602.115 189.251 602.647 190.521 603.593 191.458C604.539 192.395 605.821 192.922 607.159 192.924H787.789C789.127 192.922 790.409 192.395 791.355 191.458C792.301 190.521 792.833 189.251 792.835 187.926V152.941C792.833 151.616 792.301 150.346 791.355 149.409C790.409 148.472 789.127 147.945 787.789 147.943H607.159Z" fill="#2ECC71"/>
<path d="M632.387 181.929C638.517 181.929 643.487 177.006 643.487 170.933C643.487 164.861 638.517 159.938 632.387 159.938C626.256 159.938 621.286 164.861 621.286 170.933C621.286 177.006 626.256 181.929 632.387 181.929Z" fill="white"/>
<path d="M682.975 166.161C681.771 166.161 680.616 166.635 679.764 167.478C678.913 168.322 678.434 169.466 678.434 170.659C678.434 171.852 678.913 172.996 679.764 173.84C680.616 174.683 681.771 175.157 682.975 175.157H746.549C747.753 175.157 748.908 174.683 749.76 173.84C750.611 172.996 751.09 171.852 751.09 170.659C751.09 169.466 750.611 168.322 749.76 167.478C748.908 166.635 747.753 166.161 746.549 166.161H682.975Z" fill="white"/>
<path d="M612.951 62.8149H375.974C371.355 62.8149 367.611 60.173 367.606 56.9174V5.89745C367.611 2.64185 371.355 -1.52588e-05 375.974 -1.52588e-05H612.951C617.571 -1.52588e-05 621.314 2.64185 621.32 5.89745V56.9164C621.315 60.172 617.571 62.8109 612.951 62.8149ZM375.974 2.35697C373.202 2.35697 370.956 3.94228 370.953 5.89544V56.9144C370.953 58.8676 373.202 60.4509 375.974 60.4529H612.951C615.723 60.4529 617.969 58.8676 617.972 56.9144V5.89745C617.972 3.94429 615.723 2.36097 612.951 2.35897L375.974 2.35697Z" fill="#E6E6E6"/>
<path d="M429.556 28.9946C428.218 28.9962 426.936 29.5233 425.99 30.4602C425.044 31.3971 424.512 32.6674 424.51 33.9925V68.9774C424.512 70.3024 425.044 71.5727 425.99 72.5097C426.936 73.4466 428.218 73.9737 429.556 73.9752H610.186C611.524 73.9737 612.806 73.4466 613.752 72.5097C614.698 71.5727 615.23 70.3024 615.232 68.9774V33.9925C615.23 32.6674 614.698 31.3971 613.752 30.4602C612.806 29.5233 611.524 28.9962 610.186 28.9946H429.556Z" fill="#2ECC71"/>
<path d="M454.784 62.98C460.914 62.98 465.884 58.0572 465.884 51.9847C465.884 45.9122 460.914 40.9895 454.784 40.9895C448.653 40.9895 443.683 45.9122 443.683 51.9847C443.683 58.0572 448.653 62.98 454.784 62.98Z" fill="white"/>
<path d="M505.372 47.2122C504.168 47.2122 503.013 47.6861 502.161 48.5296C501.31 49.3732 500.831 50.5173 500.831 51.7103C500.831 52.9032 501.31 54.0473 502.161 54.8909C503.013 55.7344 504.168 56.2083 505.372 56.2083H568.946C570.15 56.2083 571.305 55.7344 572.157 54.8909C573.008 54.0473 573.487 52.9032 573.487 51.7103C573.487 50.5173 573.008 49.3732 572.157 48.5296C571.305 47.6861 570.15 47.2122 568.946 47.2122H505.372Z" fill="white"/>
</g>
<defs>
<clipPath id="clip0">
<rect width="831" height="539" fill="white"/>
</clipPath>
</defs>
</svg>
